<svg width="88" height="81" viewBox="0 0 88 81" fill="none" xmlns="http://www.w3.org/2000/svg">
<path d="M15.136 36.045H72.864C73.9787 36.045 74.9467 36.4095 75.768 37.1385C76.5893 37.8675 77 38.772 77 39.852V41.148C77 42.228 76.5893 43.1325 75.768 43.8615C74.9467 44.5905 73.9787 44.955 72.864 44.955H15.136C14.0213 44.955 13.0533 44.5905 12.232 43.8615C11.4107 43.1325 11 42.228 11 41.148V39.852C11 38.772 11.4107 37.8675 12.232 37.1385C13.0533 36.4095 14.0213 36.045 15.136 36.045ZM15.136 11.745H72.864C73.9787 11.745 74.9467 12.1095 75.768 12.8385C76.5893 13.5675 77 14.472 77 15.552V17.334C77 18.414 76.5893 19.332 75.768 20.088C74.9467 20.844 73.9787 21.222 72.864 21.222H15.136C14.0213 21.222 13.0533 20.844 12.232 20.088C11.4107 19.332 11 18.414 11 17.334V15.552C11 14.472 11.4107 13.5675 12.232 12.8385C13.0533 12.1095 14.0213 11.745 15.136 11.745ZM15.136 59.778H72.864C73.9787 59.778 74.9467 60.156 75.768 60.912C76.5893 61.668 77 62.586 77 63.666V65.448C77 66.528 76.5893 67.4325 75.768 68.1615C74.9467 68.8905 73.9787 69.255 72.864 69.255H15.136C14.0213 69.255 13.0533 68.8905 12.232 68.1615C11.4107 67.4325 11 66.528 11 65.448V63.666C11 62.586 11.4107 61.668 12.232 60.912C13.0533 60.156 14.0213 59.778 15.136 59.778Z" fill="black"/>
</svg>
