<svg width="50" height="50" viewBox="0 0 50 50" fill="none" xmlns="http://www.w3.org/2000/svg">
<path d="M45.8332 35.25V41.5C45.8356 42.0802 45.7167 42.6546 45.4843 43.1862C45.2519 43.7178 44.9109 44.195 44.4834 44.5873C44.0558 44.9795 43.5511 45.2781 43.0015 45.464C42.4518 45.6499 41.8694 45.7189 41.2916 45.6667C34.8808 44.9701 28.7228 42.7795 23.3124 39.2709C18.2787 36.0723 14.011 31.8046 10.8124 26.7709C7.29152 21.3359 5.10041 15.1479 4.41657 8.70837C4.36451 8.13226 4.43297 7.55162 4.61761 7.00342C4.80225 6.45522 5.09901 5.95148 5.489 5.52425C5.87899 5.09702 6.35366 4.75568 6.8828 4.52196C7.41194 4.28824 7.98394 4.16725 8.5624 4.16671H14.8124C15.8235 4.15675 16.8036 4.51479 17.5702 5.17407C18.3368 5.83334 18.8376 6.74889 18.9791 7.75004C19.2429 9.75018 19.7321 11.7141 20.4374 13.6042C20.7177 14.3499 20.7784 15.1603 20.6122 15.9394C20.446 16.7185 20.06 17.4336 19.4999 18L16.8541 20.6459C19.8198 25.8616 24.1383 30.1801 29.3541 33.1459L31.9999 30.5C32.5663 29.9399 33.2815 29.5539 34.0606 29.3877C34.8397 29.2216 35.6501 29.2822 36.3957 29.5625C38.2859 30.2679 40.2498 30.7571 42.2499 31.0209C43.2619 31.1636 44.1862 31.6734 44.8468 32.4532C45.5075 33.2329 45.8586 34.2283 45.8332 35.25Z" stroke="#1E1E1E" stroke-width="4" stroke-linecap="round" stroke-linejoin="round"/>
</svg>
