<svg width="126" height="143" viewBox="0 0 126 143" fill="none" xmlns="http://www.w3.org/2000/svg">
<path d="M17.1499 41.5714L62.9622 71.6309L108.775 41.5714M62.9622 131.571V71.5714M110.191 95.3809V47.7619C110.19 45.6742 109.704 43.6239 108.783 41.8164C107.862 40.009 106.538 38.5081 104.944 37.4643L68.2099 13.6547C66.6144 12.6099 64.8046 12.0598 62.9622 12.0598C61.1199 12.0598 59.3101 12.6099 57.7146 13.6547L20.9807 37.4643C19.3868 38.5081 18.0629 40.009 17.1418 41.8164C16.2208 43.6239 15.7349 45.6742 15.733 47.7619V95.3809C15.7349 97.4686 16.2208 99.519 17.1418 101.326C18.0629 103.134 19.3868 104.635 20.9807 105.679L57.7146 129.488C59.3101 130.533 61.1199 131.083 62.9622 131.083C64.8046 131.083 66.6144 130.533 68.2099 129.488L104.944 105.679C106.538 104.635 107.862 103.134 108.783 101.326C109.704 99.519 110.19 97.4686 110.191 95.3809Z" stroke="#1E1E1E" stroke-width="4" stroke-linecap="round" stroke-linejoin="round"/>
</svg>
