<svg width="126" height="143" viewBox="0 0 126 143" fill="none" xmlns="http://www.w3.org/2000/svg">
<path d="M83.9908 95.2381V17.8571H5.27539V95.2381H83.9908ZM83.9908 95.2381H120.725V65.4762L104.982 47.619H83.9908V95.2381ZM42.0092 110.119C42.0092 118.338 36.1356 125 28.89 125C21.6445 125 15.7708 118.338 15.7708 110.119C15.7708 101.9 21.6445 95.2381 28.89 95.2381C36.1356 95.2381 42.0092 101.9 42.0092 110.119ZM110.229 110.119C110.229 118.338 104.356 125 97.11 125C89.8644 125 83.9908 118.338 83.9908 110.119C83.9908 101.9 89.8644 95.2381 97.11 95.2381C104.356 95.2381 110.229 101.9 110.229 110.119Z" stroke="#1E1E1E" stroke-width="4" stroke-linecap="round" stroke-linejoin="round"/>
</svg>
